<svg id="Hourworth_Logo_Nav" data-name="Hourworth Logo Nav" xmlns="http://www.w3.org/2000/svg" width="215.067" height="40.376" viewBox="0 0 215.067 40.376">
  <g id="Group_723" data-name="Group 723">
    <path id="Path_1901" data-name="Path 1901" d="M0,0H40.376V40.376H0Z" fill="#6ec4a4"/>
    <path id="Path_1891" data-name="Path 1891" d="M374.394,58.661,372.54,53.23l-4.049,5.431H369.5l-2.219,8.767-2.136-8.767h-3.662L359.6,67.428l-.752-2.971c-1.069-3.795-3.208-5.811-6.6-5.84h-.286a6.659,6.659,0,0,0-3.043.761V53.23h-3.606V72.323h3.606v-7.1a3.271,3.271,0,0,1,3.111-3.3h.153a3.227,3.227,0,0,1,2.909,2.157l0,0,2.365,8.224h3.689l2.164-7.935,2.165,7.935h3.691l3.719-13.65Z" transform="translate(-339.44 -42.589)" fill="#212426"/>
  </g>
  <g id="Group_724" data-name="Group 724" transform="translate(50.269 6.045)">
    <path id="Path_1892" data-name="Path 1892" d="M423.778,77.164a10.453,10.453,0,0,1-3.935-.7A8.073,8.073,0,0,1,415.1,71.5a11.486,11.486,0,0,1-.625-3.861,11.329,11.329,0,0,1,.643-3.9,8.4,8.4,0,0,1,1.858-3.016,8.3,8.3,0,0,1,2.924-1.931,10.436,10.436,0,0,1,3.88-.68,10.19,10.19,0,0,1,3.825.68,8.081,8.081,0,0,1,4.726,4.91,11.444,11.444,0,0,1,.643,3.936,11.279,11.279,0,0,1-.643,3.916,8.564,8.564,0,0,1-1.839,3,8.116,8.116,0,0,1-2.906,1.931A10.231,10.231,0,0,1,423.778,77.164Zm0-4.009q4.377,0,4.377-5.516,0-5.481-4.377-5.48T419.4,67.64Q419.4,73.155,423.778,73.155Z" transform="translate(-393.18 -48.879)" fill="#08090d"/>
    <path id="Path_1893" data-name="Path 1893" d="M455.13,76.707V67.428a8.894,8.894,0,0,1,8.816-8.894l.346-.015,1.32,4.507a7.952,7.952,0,0,0-1.579-.106,4.336,4.336,0,0,0-4.122,4.372v9.416Z" transform="translate(-395.22 -48.899)" fill="#08090d"/>
    <path id="Path_1894" data-name="Path 1894" d="M482.446,76.712l-2.868-10.518-2.868,10.518h-4.892l-5.149-18.095h5.038l2.943,11.622,2.5-11.622H482l2.832,11.622L487.6,58.617h4.929l-5.186,18.095Z" transform="translate(-395.799 -48.904)" fill="#08090d"/>
    <path id="Path_1895" data-name="Path 1895" d="M502.768,77.164a10.453,10.453,0,0,1-3.935-.7,8.07,8.07,0,0,1-4.745-4.966,11.486,11.486,0,0,1-.625-3.861,11.3,11.3,0,0,1,.644-3.9,8.385,8.385,0,0,1,1.857-3.016,8.3,8.3,0,0,1,2.924-1.931,10.432,10.432,0,0,1,3.88-.68,10.194,10.194,0,0,1,3.825.68,8.082,8.082,0,0,1,4.725,4.91,11.445,11.445,0,0,1,.644,3.936,11.28,11.28,0,0,1-.644,3.916,8.551,8.551,0,0,1-1.839,3,8.1,8.1,0,0,1-2.906,1.931A10.222,10.222,0,0,1,502.768,77.164Zm0-4.009q4.375,0,4.376-5.516,0-5.481-4.376-5.48t-4.377,5.48Q498.392,73.155,502.768,73.155Z" transform="translate(-397.144 -48.879)" fill="#08090d"/>
    <path id="Path_1896" data-name="Path 1896" d="M514.759,76.707V67.428a8.894,8.894,0,0,1,8.816-8.894l1.666-.015v4.507a7.95,7.95,0,0,0-1.579-.106,4.336,4.336,0,0,0-4.122,4.372v9.416Z" transform="translate(-398.212 -48.899)" fill="#08090d"/>
    <path id="Path_1897" data-name="Path 1897" d="M537.449,64.537H541.9v5.149a8.86,8.86,0,0,1-.423,2.74,6.442,6.442,0,0,1-1.324,2.317,6.314,6.314,0,0,1-2.281,1.6,8.361,8.361,0,0,1-3.292.589,8.708,8.708,0,0,1-3.383-.589,6.4,6.4,0,0,1-2.3-1.58,6.023,6.023,0,0,1-1.306-2.318,9.51,9.51,0,0,1-.4-2.8V53.467H531.9v4.892h10v3.384h-10v7.429a4.678,4.678,0,0,0,.643,2.666,2.378,2.378,0,0,0,2.115.937,2.455,2.455,0,0,0,2.114-.919,4.328,4.328,0,0,0,.68-2.611Z" transform="translate(-398.836 -48.646)" fill="#08090d"/>
    <path id="Path_1898" data-name="Path 1898" d="M446.031,58.617h4.45V69.945a8.859,8.859,0,0,1-.423,2.74A6.428,6.428,0,0,1,448.734,75a6.314,6.314,0,0,1-2.281,1.6,8.356,8.356,0,0,1-3.291.589,8.713,8.713,0,0,1-3.384-.589,6.4,6.4,0,0,1-2.3-1.58,6.022,6.022,0,0,1-1.305-2.318,9.48,9.48,0,0,1-.4-2.8V58.617h4.707V69.43a4.678,4.678,0,0,0,.644,2.666,2.375,2.375,0,0,0,2.114.937,2.458,2.458,0,0,0,2.115-.919,4.327,4.327,0,0,0,.68-2.611Z" transform="translate(-394.249 -48.904)" fill="#08090d"/>
    <path id="Path_1899" data-name="Path 1899" d="M411.761,64.742a9.774,9.774,0,0,0-9.606-8.506l-.03,0,0-.012-.173.006-.173-.006,0,.012-.034,0a9.707,9.707,0,0,0-4.432,1.107V48.391h-5.252V76.2h5.252V65.855a4.765,4.765,0,0,1,4.531-4.8h.222A4.7,4.7,0,0,1,406.3,64.2l0,.006a4.637,4.637,0,0,1,.185.648l.1.365h0V76.2h5.253V66.006A10.07,10.07,0,0,0,411.761,64.742Z" transform="translate(-392.055 -48.391)" fill="#08090d"/>
    <path id="Path_1900" data-name="Path 1900" d="M564.435,64.742a9.775,9.775,0,0,0-9.607-8.506l-.031,0,0-.012-.173.006-.173-.006,0,.012-.034,0a9.7,9.7,0,0,0-4.431,1.107V48.391h-5.253V76.2h5.253V65.855a4.764,4.764,0,0,1,4.53-4.8h.222a4.7,4.7,0,0,1,4.237,3.143l0,.006a4.512,4.512,0,0,1,.184.648l.105.365h0V76.2h5.252V66.006A10.071,10.071,0,0,0,564.435,64.742Z" transform="translate(-399.716 -48.391)" fill="#08090d"/>
  </g>
</svg>
