<svg id="Group_1078" data-name="Group 1078" xmlns="http://www.w3.org/2000/svg" width="102.514" height="67.313" viewBox="0 0 102.514 67.313">
  <path id="Path_2577" data-name="Path 2577" d="M149.156,659.5h-5.317l-13.114,48.126H117.717l-7.629-27.972-7.629,27.972H93.3l3.7-17.212,6.641-30.914h12.925l7.523,30.914L131.9,659.5H128.35l14.291-19.145Z" transform="translate(-46.642 -640.352)" fill="#6ec4a4"/>
  <path id="Path_2578" data-name="Path 2578" d="M95.631,690.412l-3.7,17.212H88.107l-8.343-29h-.02a11.332,11.332,0,0,0-10.256-7.608h-.525a11.522,11.522,0,0,0-10.97,11.622v25.029H45.278V640.352H57.992V662.02a23.3,23.3,0,0,1,10.718-2.669h1.009c11.959.1,19.482,7.208,23.265,20.574Z" transform="translate(-45.278 -640.352)" fill="#fff"/>
</svg>
